<svg width="44" height="32" viewBox="0 0 44 32" fill="none" xmlns="http://www.w3.org/2000/svg">
<path d="M3.14286 0H18.8571C19.6907 0 20.4901 0.337142 21.0795 0.937258C21.6689 1.53737 22 2.35131 22 3.2C22 4.04869 21.6689 4.86263 21.0795 5.46274C20.4901 6.06286 19.6907 6.4 18.8571 6.4H3.14286C2.30932 6.4 1.50992 6.06286 0.920522 5.46274C0.331122 4.86263 0 4.04869 0 3.2C0 2.35131 0.331122 1.53737 0.920522 0.937258C1.50992 0.337142 2.30932 0 3.14286 0ZM25.1429 25.6H40.8571C41.6907 25.6 42.4901 25.9371 43.0795 26.5373C43.6689 27.1374 44 27.9513 44 28.8C44 29.6487 43.6689 30.4626 43.0795 31.0627C42.4901 31.6629 41.6907 32 40.8571 32H25.1429C24.3093 32 23.5099 31.6629 22.9205 31.0627C22.3311 30.4626 22 29.6487 22 28.8C22 27.9513 22.3311 27.1374 22.9205 26.5373C23.5099 25.9371 24.3093 25.6 25.1429 25.6ZM3.14286 12.8H40.8571C41.6907 12.8 42.4901 13.1371 43.0795 13.7373C43.6689 14.3374 44 15.1513 44 16C44 16.8487 43.6689 17.6626 43.0795 18.2627C42.4901 18.8629 41.6907 19.2 40.8571 19.2H3.14286C2.30932 19.2 1.50992 18.8629 0.920522 18.2627C0.331122 17.6626 0 16.8487 0 16C0 15.1513 0.331122 14.3374 0.920522 13.7373C1.50992 13.1371 2.30932 12.8 3.14286 12.8Z" fill="url(#paint0_linear_105_193)"/>
<defs>
<linearGradient id="paint0_linear_105_193" x1="0" y1="0" x2="44.9488" y2="1.39339" gradientUnits="userSpaceOnUse">
<stop stop-color="#FF8C4E"/>
<stop offset="1" stop-color="#FE5F33"/>
</linearGradient>
</defs>
</svg>
