<svg width="20" height="30" viewBox="0 0 20 30" fill="none" xmlns="http://www.w3.org/2000/svg">
<g clip-path="url(#clip0_90_262)">
<path d="M6.42015 16.7043L5.5557 17.5342V4C5.55508 3.68615 5.45075 3.38542 5.2656 3.16376C5.08045 2.94211 4.82959 2.81763 4.56806 2.81763C4.30652 2.81763 4.05566 2.94211 3.87051 3.16376C3.68536 3.38542 3.58103 3.68615 3.58041 4V17.5342L2.71596 16.7043C2.51135 16.5092 2.25064 16.4194 1.99096 16.4545C1.73128 16.4897 1.49378 16.6469 1.33051 16.8917C1.16723 17.1366 1.09148 17.4491 1.11985 17.7609C1.14823 18.0726 1.27841 18.3581 1.48188 18.5549L3.95102 20.9253C4.12614 21.0935 4.34376 21.1852 4.56806 21.1852C4.79236 21.1852 5.00998 21.0935 5.1851 20.9253L7.65423 18.555C7.8577 18.3582 7.98788 18.0726 8.01625 17.7609C8.04463 17.4492 7.96888 17.1366 7.8056 16.8918C7.64233 16.6469 7.40483 16.4897 7.14515 16.4546C6.88547 16.4194 6.62476 16.5092 6.42015 16.7043Z" fill="#5B5B5B"/>
<path d="M17.9014 2.81494H8.51866C8.25671 2.81494 8.0055 2.93981 7.82028 3.16207C7.63506 3.38434 7.53101 3.68579 7.53101 4.00012C7.53101 4.31445 7.63506 4.61591 7.82028 4.83817C8.0055 5.06043 8.25671 5.1853 8.51866 5.1853H17.9014C18.1633 5.1853 18.4145 5.06043 18.5997 4.83817C18.7849 4.61591 18.889 4.31445 18.889 4.00012C18.889 3.68579 18.7849 3.38434 18.5997 3.16207C18.4145 2.93981 18.1633 2.81494 17.9014 2.81494Z" fill="#5B5B5B"/>
<path d="M15.5555 7.55566H8.51852C8.25698 7.55641 8.00637 7.6816 7.82165 7.90379C7.63694 8.12597 7.5332 8.427 7.5332 8.74085C7.5332 9.05469 7.63694 9.35572 7.82165 9.57791C8.00637 9.80009 8.25698 9.92529 8.51852 9.92603H15.5555C15.8171 9.92529 16.0677 9.80009 16.2524 9.57791C16.4371 9.35572 16.5408 9.05469 16.5408 8.74085C16.5408 8.427 16.4371 8.12597 16.2524 7.90379C16.0677 7.6816 15.8171 7.55641 15.5555 7.55566Z" fill="#5B5B5B"/>
<path d="M12.2716 12.2964H8.51852C8.25698 12.2971 8.00637 12.4223 7.82165 12.6445C7.63694 12.8667 7.5332 13.1677 7.5332 13.4816C7.5332 13.7954 7.63694 14.0964 7.82165 14.3186C8.00637 14.5408 8.25698 14.666 8.51852 14.6668H12.2716C12.5332 14.666 12.7838 14.5408 12.9685 14.3186C13.1532 14.0964 13.257 13.7954 13.257 13.4816C13.257 13.1677 13.1532 12.8667 12.9685 12.6445C12.7838 12.4223 12.5332 12.2971 12.2716 12.2964Z" fill="#5B5B5B"/>
</g>
<defs>
<clipPath id="clip0_90_262">
<rect width="20" height="30" fill="white"/>
</clipPath>
</defs>
</svg>
