<svg width="288" height="48" viewBox="0 0 288 48" fill="none" xmlns="http://www.w3.org/2000/svg">
<g clip-path="url(#clip0_89_163)">
<path d="M14.3495 41.0902C17.9464 41.0902 20.8623 38.2338 20.8623 34.7103C20.8623 31.1868 17.9464 28.3304 14.3495 28.3304C10.7525 28.3304 7.83661 31.1868 7.83661 34.7103C7.83661 38.2338 10.7525 41.0902 14.3495 41.0902Z" fill="url(#paint0_linear_89_163)"/>
<path d="M14.3494 37.9237C16.1611 37.9237 17.6298 36.485 17.6298 34.7103C17.6298 32.9356 16.1611 31.4969 14.3494 31.4969C12.5378 31.4969 11.0691 32.9356 11.0691 34.7103C11.0691 36.485 12.5378 37.9237 14.3494 37.9237Z" fill="url(#paint1_linear_89_163)"/>
<path d="M42.662 41.0902C46.2589 41.0902 49.1748 38.2338 49.1748 34.7103C49.1748 31.1868 46.2589 28.3304 42.662 28.3304C39.065 28.3304 36.1491 31.1868 36.1491 34.7103C36.1491 38.2338 39.065 41.0902 42.662 41.0902Z" fill="url(#paint2_linear_89_163)"/>
<path d="M42.6619 37.9237C44.4736 37.9237 45.9423 36.485 45.9423 34.7103C45.9423 32.9356 44.4736 31.4969 42.6619 31.4969C40.8503 31.4969 39.3816 32.9356 39.3816 34.7103C39.3816 36.485 40.8503 37.9237 42.6619 37.9237Z" fill="url(#paint3_linear_89_163)"/>
<path d="M5.39688 33.9706H36.4788C36.4788 30.7672 40.6003 27.1264 43.4655 27.1264L33.8024 10.5251C31.7844 10.5251 30.2779 12.3455 30.6958 14.2797L33.3162 26.4062C33.4706 27.1217 33.285 27.8667 32.8112 28.4315C32.3449 28.9879 31.6483 29.3103 30.9136 29.3103H24.2324C22.9943 29.3103 21.9907 28.3272 21.9907 27.1143V24.0953C21.9907 22.6327 20.78 21.4467 19.2869 21.4467H10.3801C8.42337 21.4467 6.67266 22.6385 5.99013 24.4352L3.42457 31.1897C2.91254 32.5369 3.92962 33.9706 5.39688 33.9706Z" fill="url(#paint4_linear_89_163)"/>
<path d="M48.6864 30.4068C47.7941 28.5701 46.0993 27.098 43.8248 26.5548C40.8752 25.8498 37.7132 27.089 36.0797 29.5964C34.9292 31.3615 34.6727 33.3551 35.1282 35.156C35.2245 35.5369 35.7355 35.6297 35.9829 35.3204C38.8308 31.7577 43.5688 30.0627 48.1313 31.0685C48.5234 31.1539 48.8591 30.7624 48.6864 30.4068Z" fill="url(#paint5_linear_89_163)"/>
<path d="M3.54508 6.85809H16.744C18.2768 6.85809 19.5198 8.0757 19.5198 9.5773V21.4246H3.54508C2.0122 21.4251 0.769226 20.2075 0.769226 18.7054V9.5773C0.769226 8.0757 2.0122 6.85809 3.54508 6.85809Z" fill="url(#paint6_linear_89_163)"/>
<path d="M38.8093 10.8618H39.2633C39.8162 10.8618 40.2647 11.3012 40.2647 11.8429V16.4398C40.2647 16.9815 39.8162 17.4209 39.2633 17.4209H38.8093C36.9602 17.4209 35.4612 15.9525 35.4612 14.1411C35.4612 12.3302 36.9602 10.8618 38.8093 10.8618Z" fill="url(#paint7_linear_89_163)"/>
<path d="M34.3839 10.4482C34.3839 11.2196 33.7454 11.8455 32.9575 11.8455C32.1695 11.8455 29.6406 11.2201 29.6406 10.4482C29.6406 9.67689 32.1701 9.05096 32.9575 9.05096C33.7449 9.05096 34.3839 9.67637 34.3839 10.4482Z" fill="url(#paint8_linear_89_163)"/>
</g>
<line x1="70" x2="70" y2="48" stroke="url(#paint9_linear_89_163)"/>
<path d="M107.81 18.2756C107.696 17.1297 107.208 16.2396 106.347 15.6051C105.485 14.9706 104.315 14.6534 102.838 14.6534C101.834 14.6534 100.987 14.7955 100.295 15.0795C99.6042 15.3542 99.0739 15.7377 98.7045 16.2301C98.3447 16.7225 98.1648 17.2812 98.1648 17.9062C98.1458 18.4271 98.2547 18.8816 98.4915 19.2699C98.7377 19.6581 99.0739 19.9943 99.5 20.2784C99.9261 20.553 100.419 20.7945 100.977 21.0028C101.536 21.2017 102.133 21.3722 102.767 21.5142L105.381 22.1392C106.65 22.4233 107.814 22.8021 108.875 23.2756C109.936 23.7491 110.854 24.3314 111.631 25.0227C112.407 25.714 113.009 26.5284 113.435 27.4659C113.87 28.4034 114.093 29.4782 114.102 30.6903C114.093 32.4706 113.638 34.0142 112.739 35.321C111.848 36.6184 110.561 37.6269 108.875 38.3466C107.199 39.0568 105.177 39.4119 102.81 39.4119C100.461 39.4119 98.4157 39.0521 96.6733 38.3324C94.9403 37.6127 93.5862 36.5473 92.6108 35.1364C91.6449 33.7159 91.1383 31.9593 91.0909 29.8665H97.0426C97.1089 30.8419 97.3883 31.6562 97.8807 32.3097C98.3826 32.9536 99.0502 33.4413 99.8835 33.7727C100.726 34.0947 101.678 34.2557 102.739 34.2557C103.78 34.2557 104.685 34.1042 105.452 33.8011C106.228 33.4981 106.83 33.0767 107.256 32.5369C107.682 31.9972 107.895 31.3769 107.895 30.6761C107.895 30.0227 107.701 29.4735 107.312 29.0284C106.934 28.5833 106.375 28.2045 105.636 27.892C104.907 27.5795 104.012 27.2955 102.952 27.0398L99.7841 26.2443C97.3314 25.6477 95.3949 24.715 93.9744 23.446C92.554 22.1771 91.8485 20.4678 91.858 18.3182C91.8485 16.5568 92.3172 15.018 93.2642 13.7017C94.2206 12.3854 95.5322 11.358 97.1989 10.6193C98.8655 9.88068 100.759 9.51136 102.881 9.51136C105.04 9.51136 106.924 9.88068 108.534 10.6193C110.153 11.358 111.413 12.3854 112.312 13.7017C113.212 15.018 113.676 16.5426 113.705 18.2756H107.81ZM124.347 39.4119C122.955 39.4119 121.715 39.1705 120.626 38.6875C119.537 38.1951 118.675 37.4706 118.04 36.5142C117.415 35.5483 117.103 34.3456 117.103 32.9062C117.103 31.6941 117.326 30.6761 117.771 29.8523C118.216 29.0284 118.822 28.3655 119.589 27.8636C120.356 27.3617 121.227 26.983 122.202 26.7273C123.187 26.4716 124.219 26.2917 125.299 26.1875C126.568 26.0549 127.591 25.9318 128.367 25.8182C129.144 25.6951 129.707 25.5152 130.058 25.2784C130.408 25.0417 130.583 24.6913 130.583 24.2273V24.142C130.583 23.2424 130.299 22.5464 129.731 22.054C129.172 21.5616 128.377 21.3153 127.344 21.3153C126.255 21.3153 125.389 21.5568 124.745 22.0398C124.101 22.5133 123.675 23.1098 123.467 23.8295L117.87 23.375C118.154 22.0492 118.713 20.9034 119.546 19.9375C120.379 18.9621 121.454 18.214 122.771 17.6932C124.096 17.1629 125.63 16.8977 127.373 16.8977C128.585 16.8977 129.745 17.0398 130.853 17.3239C131.97 17.608 132.96 18.0483 133.822 18.6449C134.693 19.2415 135.379 20.0085 135.881 20.946C136.383 21.8741 136.634 22.9867 136.634 24.2841V39H130.896V35.9744H130.725C130.375 36.6562 129.906 37.2576 129.319 37.7784C128.732 38.2898 128.026 38.6922 127.202 38.9858C126.379 39.2699 125.427 39.4119 124.347 39.4119ZM126.08 35.2358C126.97 35.2358 127.756 35.0606 128.438 34.7102C129.12 34.3504 129.655 33.8674 130.043 33.2614C130.432 32.6553 130.626 31.9687 130.626 31.2017V28.8864C130.436 29.0095 130.176 29.1231 129.844 29.2273C129.522 29.322 129.158 29.4119 128.751 29.4972C128.344 29.5729 127.936 29.6439 127.529 29.7102C127.122 29.767 126.753 29.8191 126.421 29.8665C125.711 29.9706 125.091 30.1364 124.56 30.3636C124.03 30.5909 123.618 30.8987 123.325 31.2869C123.031 31.6657 122.884 32.1392 122.884 32.7074C122.884 33.5312 123.183 34.161 123.779 34.5966C124.385 35.0227 125.152 35.2358 126.08 35.2358ZM147.38 26.3864V39H141.329V17.1818H147.096V21.0312H147.352C147.835 19.7623 148.644 18.7585 149.781 18.0199C150.917 17.2718 152.295 16.8977 153.914 16.8977C155.429 16.8977 156.75 17.2292 157.877 17.892C159.004 18.5549 159.88 19.5019 160.505 20.733C161.13 21.9545 161.442 23.4129 161.442 25.108V39H155.391V26.1875C155.401 24.8523 155.06 23.8106 154.369 23.0625C153.677 22.3049 152.726 21.9261 151.513 21.9261C150.699 21.9261 149.979 22.1013 149.354 22.4517C148.739 22.8021 148.256 23.3134 147.906 23.9858C147.565 24.6487 147.389 25.4489 147.38 26.3864ZM177.817 17.1818V21.7273H164.678V17.1818H177.817ZM167.661 11.9545H173.712V32.2955C173.712 32.8542 173.797 33.2898 173.967 33.6023C174.138 33.9053 174.375 34.1184 174.678 34.2415C174.99 34.3646 175.35 34.4261 175.757 34.4261C176.041 34.4261 176.325 34.4025 176.609 34.3551C176.893 34.2983 177.111 34.2557 177.263 34.2273L178.214 38.7301C177.911 38.8248 177.485 38.9337 176.936 39.0568C176.387 39.1894 175.719 39.2699 174.933 39.2983C173.475 39.3551 172.196 39.161 171.098 38.7159C170.009 38.2708 169.161 37.5795 168.555 36.642C167.949 35.7045 167.651 34.5208 167.661 33.0909V11.9545ZM181.759 39V17.1818H187.81V39H181.759ZM184.798 14.3693C183.899 14.3693 183.127 14.071 182.483 13.4744C181.848 12.8684 181.531 12.1439 181.531 11.3011C181.531 10.4678 181.848 9.75284 182.483 9.15625C183.127 8.55019 183.899 8.24716 184.798 8.24716C185.698 8.24716 186.465 8.55019 187.099 9.15625C187.743 9.75284 188.065 10.4678 188.065 11.3011C188.065 12.1439 187.743 12.8684 187.099 13.4744C186.465 14.071 185.698 14.3693 184.798 14.3693ZM198.879 39.4119C197.487 39.4119 196.246 39.1705 195.157 38.6875C194.068 38.1951 193.206 37.4706 192.572 36.5142C191.947 35.5483 191.634 34.3456 191.634 32.9062C191.634 31.6941 191.857 30.6761 192.302 29.8523C192.747 29.0284 193.353 28.3655 194.12 27.8636C194.887 27.3617 195.758 26.983 196.734 26.7273C197.719 26.4716 198.751 26.2917 199.83 26.1875C201.099 26.0549 202.122 25.9318 202.898 25.8182C203.675 25.6951 204.238 25.5152 204.589 25.2784C204.939 25.0417 205.114 24.6913 205.114 24.2273V24.142C205.114 23.2424 204.83 22.5464 204.262 22.054C203.703 21.5616 202.908 21.3153 201.876 21.3153C200.787 21.3153 199.92 21.5568 199.276 22.0398C198.632 22.5133 198.206 23.1098 197.998 23.8295L192.401 23.375C192.685 22.0492 193.244 20.9034 194.077 19.9375C194.911 18.9621 195.986 18.214 197.302 17.6932C198.628 17.1629 200.162 16.8977 201.904 16.8977C203.116 16.8977 204.276 17.0398 205.384 17.3239C206.502 17.608 207.491 18.0483 208.353 18.6449C209.224 19.2415 209.911 20.0085 210.413 20.946C210.915 21.8741 211.165 22.9867 211.165 24.2841V39H205.427V35.9744H205.256C204.906 36.6562 204.437 37.2576 203.85 37.7784C203.263 38.2898 202.558 38.6922 201.734 38.9858C200.91 39.2699 199.958 39.4119 198.879 39.4119ZM200.612 35.2358C201.502 35.2358 202.288 35.0606 202.969 34.7102C203.651 34.3504 204.186 33.8674 204.575 33.2614C204.963 32.6553 205.157 31.9687 205.157 31.2017V28.8864C204.968 29.0095 204.707 29.1231 204.376 29.2273C204.054 29.322 203.689 29.4119 203.282 29.4972C202.875 29.5729 202.468 29.6439 202.06 29.7102C201.653 29.767 201.284 29.8191 200.952 29.8665C200.242 29.9706 199.622 30.1364 199.092 30.3636C198.561 30.5909 198.149 30.8987 197.856 31.2869C197.562 31.6657 197.415 32.1392 197.415 32.7074C197.415 33.5312 197.714 34.161 198.31 34.5966C198.916 35.0227 199.683 35.2358 200.612 35.2358ZM229.454 24.6534V29.4545H216.187V24.6534H229.454ZM254.013 19.3125C253.815 18.6212 253.535 18.0104 253.175 17.4801C252.816 16.9403 252.375 16.4858 251.854 16.1165C251.343 15.7377 250.756 15.4489 250.093 15.25C249.44 15.0511 248.715 14.9517 247.92 14.9517C246.433 14.9517 245.126 15.321 243.999 16.0597C242.882 16.7983 242.011 17.8731 241.386 19.2841C240.761 20.6856 240.448 22.3996 240.448 24.4261C240.448 26.4527 240.756 28.1761 241.371 29.5966C241.987 31.017 242.858 32.1013 243.985 32.8494C245.112 33.5881 246.442 33.9574 247.977 33.9574C249.369 33.9574 250.557 33.7112 251.542 33.2188C252.536 32.7169 253.294 32.0114 253.815 31.1023C254.345 30.1932 254.61 29.1184 254.61 27.8778L255.86 28.0625H248.36V23.4318H260.533V27.0966C260.533 29.6534 259.994 31.8504 258.914 33.6875C257.835 35.5152 256.348 36.9261 254.454 37.9205C252.56 38.9053 250.391 39.3977 247.948 39.3977C245.221 39.3977 242.825 38.7964 240.761 37.5938C238.696 36.3816 237.086 34.6629 235.931 32.4375C234.785 30.2027 234.212 27.5511 234.212 24.483C234.212 22.125 234.553 20.0227 235.235 18.1761C235.926 16.3201 236.892 14.7481 238.133 13.4602C239.373 12.1723 240.817 11.1922 242.465 10.5199C244.113 9.84754 245.898 9.51136 247.82 9.51136C249.468 9.51136 251.002 9.75284 252.423 10.2358C253.843 10.7093 255.103 11.3816 256.201 12.2528C257.309 13.1241 258.213 14.161 258.914 15.3636C259.615 16.5568 260.065 17.8731 260.263 19.3125H254.013ZM274.898 39.4261C272.691 39.4261 270.783 38.9574 269.173 38.0199C267.573 37.0729 266.337 35.7566 265.466 34.071C264.595 32.3759 264.159 30.411 264.159 28.1761C264.159 25.9223 264.595 23.9527 265.466 22.267C266.337 20.572 267.573 19.2557 269.173 18.3182C270.783 17.3712 272.691 16.8977 274.898 16.8977C277.104 16.8977 279.008 17.3712 280.608 18.3182C282.218 19.2557 283.458 20.572 284.33 22.267C285.201 23.9527 285.636 25.9223 285.636 28.1761C285.636 30.411 285.201 32.3759 284.33 34.071C283.458 35.7566 282.218 37.0729 280.608 38.0199C279.008 38.9574 277.104 39.4261 274.898 39.4261ZM274.926 34.7386C275.93 34.7386 276.768 34.4545 277.44 33.8864C278.113 33.3087 278.619 32.5227 278.96 31.5284C279.311 30.5341 279.486 29.4025 279.486 28.1335C279.486 26.8646 279.311 25.733 278.96 24.7386C278.619 23.7443 278.113 22.9583 277.44 22.3807C276.768 21.803 275.93 21.5142 274.926 21.5142C273.913 21.5142 273.061 21.803 272.369 22.3807C271.688 22.9583 271.171 23.7443 270.821 24.7386C270.48 25.733 270.31 26.8646 270.31 28.1335C270.31 29.4025 270.48 30.5341 270.821 31.5284C271.171 32.5227 271.688 33.3087 272.369 33.8864C273.061 34.4545 273.913 34.7386 274.926 34.7386Z" fill="url(#paint10_linear_89_163)"/>
<defs>
<linearGradient id="paint0_linear_89_163" x1="7.83661" y1="28.3304" x2="21.1489" y2="28.6368" gradientUnits="userSpaceOnUse">
<stop stop-color="#FF8C4E"/>
<stop offset="1" stop-color="#FE5F33"/>
</linearGradient>
<linearGradient id="paint1_linear_89_163" x1="11.0691" y1="31.4969" x2="17.7742" y2="31.6512" gradientUnits="userSpaceOnUse">
<stop stop-color="#FF8C4E"/>
<stop offset="1" stop-color="#FE5F33"/>
</linearGradient>
<linearGradient id="paint2_linear_89_163" x1="36.1491" y1="28.3304" x2="49.4614" y2="28.6368" gradientUnits="userSpaceOnUse">
<stop stop-color="#FF8C4E"/>
<stop offset="1" stop-color="#FE5F33"/>
</linearGradient>
<linearGradient id="paint3_linear_89_163" x1="39.3816" y1="31.4969" x2="46.0867" y2="31.6512" gradientUnits="userSpaceOnUse">
<stop stop-color="#FF8C4E"/>
<stop offset="1" stop-color="#FE5F33"/>
</linearGradient>
<linearGradient id="paint4_linear_89_163" x1="3.29041" y1="10.5251" x2="44.31" y2="12.1098" gradientUnits="userSpaceOnUse">
<stop stop-color="#FF8C4E"/>
<stop offset="1" stop-color="#FE5F33"/>
</linearGradient>
<linearGradient id="paint5_linear_89_163" x1="34.9153" y1="26.3588" x2="49.0281" y2="26.8395" gradientUnits="userSpaceOnUse">
<stop stop-color="#FF8C4E"/>
<stop offset="1" stop-color="#FE5F33"/>
</linearGradient>
<linearGradient id="paint6_linear_89_163" x1="0.769226" y1="6.85809" x2="19.9264" y2="7.41405" gradientUnits="userSpaceOnUse">
<stop stop-color="#FF8C4E"/>
<stop offset="1" stop-color="#FE5F33"/>
</linearGradient>
<linearGradient id="paint7_linear_89_163" x1="35.4612" y1="10.8618" x2="40.3717" y2="10.9429" gradientUnits="userSpaceOnUse">
<stop stop-color="#FF8C4E"/>
<stop offset="1" stop-color="#FE5F33"/>
</linearGradient>
<linearGradient id="paint8_linear_89_163" x1="29.6406" y1="9.05096" x2="34.4837" y2="9.2363" gradientUnits="userSpaceOnUse">
<stop stop-color="#FF8C4E"/>
<stop offset="1" stop-color="#FE5F33"/>
</linearGradient>
<linearGradient id="paint9_linear_89_163" x1="69.5" y1="0" x2="45.0352" y2="22.6073" gradientUnits="userSpaceOnUse">
<stop stop-color="#FF8C4E"/>
<stop offset="1" stop-color="#FE5F33"/>
</linearGradient>
<linearGradient id="paint10_linear_89_163" x1="89.5" y1="0" x2="290.228" y2="18.6674" gradientUnits="userSpaceOnUse">
<stop stop-color="#FF8C4E"/>
<stop offset="1" stop-color="#FE5F33"/>
</linearGradient>
<clipPath id="clip0_89_163">
<rect width="49" height="48" fill="white" transform="translate(0.5)"/>
</clipPath>
</defs>
</svg>
