<svg width="16" height="15" viewBox="0 0 16 15" fill="none" xmlns="http://www.w3.org/2000/svg">
<path d="M15.6003 6.83262L12.381 9.56628L13.3453 13.6362C13.3964 13.849 13.3818 14.0717 13.3035 14.2764C13.2251 14.4812 13.0865 14.6589 12.9049 14.7874C12.7233 14.9159 12.5068 14.9895 12.2825 14.999C12.0582 15.0084 11.8359 14.9533 11.6436 14.8405L7.99536 12.6875L4.35495 14.8405C4.16263 14.9533 3.94041 15.0084 3.71607 14.999C3.49174 14.9895 3.27524 14.9159 3.09365 14.7874C2.91206 14.6589 2.77343 14.4812 2.6951 14.2764C2.61676 14.0717 2.6022 13.849 2.65323 13.6362L3.61616 9.57045L0.396178 6.83262C0.22587 6.6897 0.10272 6.50104 0.0421704 6.2903C-0.0183792 6.07955 -0.0136323 5.8561 0.0558155 5.64797C0.125263 5.43984 0.256321 5.25629 0.432553 5.12035C0.608785 4.9844 0.822346 4.9021 1.04646 4.88378L5.29075 4.5261L6.94749 0.681193C7.03401 0.479444 7.17994 0.307112 7.36692 0.185896C7.55389 0.06468 7.77354 0 7.99822 0C8.22289 0 8.44254 0.06468 8.62952 0.185896C8.81649 0.307112 8.96242 0.479444 9.04894 0.681193L10.7107 4.5261L14.9535 4.88378C15.1777 4.9021 15.3912 4.9844 15.5674 5.12035C15.7437 5.25629 15.8747 5.43984 15.9442 5.64797C16.0136 5.8561 16.0184 6.07955 15.9578 6.2903C15.8973 6.50104 15.7741 6.6897 15.6038 6.83262H15.6003Z" fill="#FCCB46"/>
</svg>